<svg width="105" height="32" viewBox="0 0 105 32" fill="none" xmlns="http://www.w3.org/2000/svg">
<path d="M60.9049 16.9792C61.7267 15.6852 63.1431 14.9508 64.8393 14.9508C66.9202 14.9508 68.6863 15.9475 69.683 17.7136C70.8196 15.8951 72.4808 14.9508 74.5442 14.9508C77.954 14.9508 80.3147 17.3289 80.3147 21.1759V29.7442H78.4611V21.3858C78.4611 18.2907 76.9923 16.612 74.5267 16.612C72.0786 16.612 70.5923 18.3082 70.5923 21.3858V29.7617H68.7388V21.4033C68.7388 18.3082 67.2524 16.6295 64.8043 16.6295C62.3562 16.6295 60.8699 18.3257 60.8699 21.4033V29.7617H59.0164V15.3355H60.8699V16.9792H60.9049Z" fill="white"/>
<path d="M57.8099 12.0306C57.8099 11.1563 57.0929 10.4394 56.2186 10.4394C55.3443 10.4394 54.6273 11.1563 54.6273 12.0306C54.6273 12.905 55.3443 13.6219 56.2186 13.6219C57.1104 13.6219 57.8099 12.9225 57.8099 12.0306Z" fill="white"/>
<path d="M57.1628 15.318H55.3093V29.7442H57.1628V15.318Z" fill="white"/>
<path d="M53.4033 29.7618H51.5497V27.2262C49.9759 29.6044 47.388 30.094 45.8841 30.094C41.3552 30.094 38.1377 26.6317 38.1377 22.5049C38.1377 18.6579 41.1628 14.9683 45.8841 14.9683C47.4404 14.9683 50.0284 15.4754 51.5497 17.8711V15.3355H53.4033V29.7618ZM45.8841 28.4328C48.9967 28.4328 51.6546 25.9323 51.6546 22.5574C51.6546 19.3924 49.2066 16.6295 45.8841 16.6295C42.7191 16.6295 39.9738 18.9202 39.9738 22.5924C39.9738 25.7924 42.3519 28.4328 45.8841 28.4328Z" fill="white"/>
<path d="M2.06339 32C11.7333 14.059 30.6885 1.81858 52.459 1.81858C74.2295 1.81858 93.2022 14.0415 102.855 32H104.918C95.0907 13.0098 75.2787 0 52.459 0C29.6568 0 9.82732 13.0098 0 32H2.06339Z" fill="white"/>
<path d="M24.2535 15.318H26.1071V17.1716C26.6667 16.2973 28.1355 14.9508 30.5836 14.9508C32.3497 14.9508 33.8361 15.4055 35.1475 16.7169C36.2317 17.7661 36.9486 19.4273 36.9486 21.8054V29.7617H35.0951V21.8229C35.0951 19.9519 34.518 18.6229 33.7311 17.871C32.7344 16.8918 31.4055 16.6295 30.5836 16.6295C29.7617 16.6295 28.4503 16.8918 27.4535 17.871C26.6841 18.6054 26.1071 19.8994 26.1071 21.7005V29.7617H24.2535V15.318Z" fill="white"/>
</svg>
